<?xml version="1.0" encoding="UTF-8"?>
<svg xmlns="http://www.w3.org/2000/svg" xmlns:xlink="http://www.w3.org/1999/xlink" width="28pt" height="28pt" viewBox="0 0 28 28" version="1.1">
<g id="surface1">
<path style=" stroke:none;fill-rule:nonzero;fill:rgb(100%,100%,100%);fill-opacity:1;" d="M 6.65625 0 C 5.21875 0 4.050781 1.167969 4.050781 2.601562 C 4.050781 4.039062 5.21875 5.207031 6.65625 5.207031 C 8.089844 5.207031 9.257812 4.039062 9.257812 2.601562 C 9.257812 1.167969 8.089844 0 6.65625 0 Z M 6.65625 4.382812 C 5.671875 4.382812 4.875 3.585938 4.875 2.601562 C 4.875 1.621094 5.671875 0.820312 6.65625 0.820312 C 7.636719 0.820312 8.433594 1.621094 8.433594 2.601562 C 8.433594 3.585938 7.636719 4.382812 6.65625 4.382812 Z M 6.65625 4.382812 "/>
<path style=" stroke:none;fill-rule:nonzero;fill:rgb(100%,100%,100%);fill-opacity:1;" d="M 11.296875 5.792969 C 11.144531 5.730469 10.976562 5.699219 10.8125 5.699219 L 2.28125 5.699219 C 1.671875 5.699219 1.132812 6.144531 1.015625 6.746094 C 0.984375 6.921875 0.988281 7.101562 1.027344 7.277344 L 3.398438 17.554688 L 3.398438 26.710938 C 3.398438 27.421875 3.976562 28 4.6875 28 L 8.40625 28 C 9.117188 28 9.695312 27.421875 9.695312 26.710938 L 9.695312 17.554688 L 12.066406 7.277344 C 12.207031 6.667969 11.875 6.027344 11.296875 5.792969 Z M 7.003906 6.519531 L 6.773438 7.453125 L 6.539062 7.453125 L 6.304688 6.519531 Z M 6.589844 8.273438 L 6.71875 8.273438 L 7.105469 12.53125 L 6.65625 12.980469 L 6.203125 12.53125 Z M 11.265625 7.089844 L 8.882812 17.414062 C 8.878906 17.445312 8.875 17.476562 8.875 17.507812 L 8.875 26.710938 C 8.875 26.96875 8.664062 27.179688 8.40625 27.179688 L 4.6875 27.179688 C 4.429688 27.179688 4.222656 26.96875 4.222656 26.710938 L 4.222656 17.507812 C 4.222656 17.476562 4.21875 17.445312 4.210938 17.414062 L 1.828125 7.089844 C 1.761719 6.804688 1.988281 6.519531 2.28125 6.519531 L 5.457031 6.519531 L 5.800781 7.894531 L 5.367188 12.648438 C 5.359375 12.769531 5.402344 12.890625 5.488281 12.976562 L 6.363281 13.851562 C 6.523438 14.011719 6.785156 14.011719 6.945312 13.851562 L 7.820312 12.976562 C 7.90625 12.890625 7.953125 12.769531 7.941406 12.648438 L 7.507812 7.894531 L 7.851562 6.519531 L 10.8125 6.519531 C 11.109375 6.519531 11.332031 6.804688 11.265625 7.089844 Z M 11.265625 7.089844 "/>
<path style=" stroke:none;fill-rule:nonzero;fill:rgb(100%,100%,100%);fill-opacity:1;" d="M 21.558594 0 C 20.125 0 18.957031 1.167969 18.957031 2.601562 C 18.957031 4.039062 20.125 5.207031 21.558594 5.207031 C 22.992188 5.207031 24.160156 4.039062 24.160156 2.601562 C 24.160156 1.167969 22.992188 0 21.558594 0 Z M 21.558594 4.382812 C 20.578125 4.382812 19.777344 3.585938 19.777344 2.601562 C 19.777344 1.621094 20.578125 0.820312 21.558594 0.820312 C 22.539062 0.820312 23.339844 1.621094 23.339844 2.601562 C 23.339844 3.585938 22.539062 4.382812 21.558594 4.382812 Z M 21.558594 4.382812 "/>
<path style=" stroke:none;fill-rule:nonzero;fill:rgb(100%,100%,100%);fill-opacity:1;" d="M 26.972656 16.339844 L 24.746094 6.695312 C 24.609375 6.109375 24.09375 5.699219 23.492188 5.699219 L 19.414062 5.699219 C 18.808594 5.699219 18.292969 6.109375 18.15625 6.695312 L 15.933594 16.339844 C 15.792969 16.949219 16.125 17.589844 16.703125 17.824219 C 16.855469 17.886719 17.023438 17.917969 17.1875 17.917969 L 18.304688 17.917969 L 18.304688 26.710938 C 18.304688 27.421875 18.882812 28 19.59375 28 L 23.3125 28 C 24.023438 28 24.601562 27.421875 24.601562 26.710938 L 24.601562 17.917969 L 25.71875 17.917969 C 26.328125 17.917969 26.867188 17.472656 26.984375 16.871094 C 27.015625 16.695312 27.011719 16.515625 26.972656 16.339844 Z M 23.492188 6.519531 C 23.710938 6.519531 23.894531 6.667969 23.945312 6.882812 L 25.390625 13.152344 L 24.160156 13.152344 L 24.160156 12.683594 C 24.160156 12.214844 23.78125 11.835938 23.3125 11.835938 L 22.285156 11.835938 L 20.386719 6.519531 Z M 20.65625 13.152344 L 20.65625 12.683594 C 20.65625 12.667969 20.667969 12.65625 20.683594 12.65625 L 23.3125 12.65625 C 23.328125 12.65625 23.339844 12.667969 23.339844 12.683594 L 23.339844 13.152344 Z M 23.339844 13.972656 L 23.339844 14.464844 L 22.40625 14.464844 C 22.40625 14.457031 22.40625 14.449219 22.40625 14.4375 L 22.40625 13.972656 Z M 21.585938 14.464844 L 20.65625 14.464844 L 20.65625 13.972656 L 21.585938 13.972656 L 21.585938 14.4375 C 21.585938 14.449219 21.585938 14.457031 21.585938 14.464844 Z M 26.082031 16.921875 C 25.992188 17.03125 25.859375 17.097656 25.71875 17.097656 L 24.1875 17.097656 C 23.960938 17.097656 23.777344 17.28125 23.777344 17.507812 L 23.777344 26.710938 C 23.777344 26.96875 23.570312 27.179688 23.3125 27.179688 L 19.59375 27.179688 C 19.335938 27.179688 19.125 26.96875 19.125 26.710938 L 19.125 17.507812 C 19.125 17.28125 18.941406 17.097656 18.714844 17.097656 L 17.1875 17.097656 C 16.890625 17.097656 16.667969 16.8125 16.734375 16.523438 L 18.957031 6.882812 C 19.007812 6.667969 19.195312 6.519531 19.414062 6.519531 L 19.515625 6.519531 L 21.414062 11.835938 L 20.683594 11.835938 C 20.214844 11.835938 19.832031 12.214844 19.832031 12.683594 L 19.832031 14.875 C 19.832031 15.105469 20.015625 15.289062 20.242188 15.289062 L 23.75 15.289062 C 23.976562 15.289062 24.160156 15.105469 24.160156 14.875 L 24.160156 13.972656 L 25.503906 13.972656 C 25.53125 13.972656 25.554688 13.96875 25.578125 13.964844 L 26.171875 16.523438 C 26.203125 16.664062 26.171875 16.808594 26.082031 16.921875 Z M 26.082031 16.921875 "/>
<path style=" stroke:none;fill-rule:nonzero;fill:rgb(100%,100%,100%);fill-opacity:1;" d="M 14.117188 3.070312 C 13.890625 3.070312 13.707031 3.253906 13.707031 3.480469 L 13.707031 21.011719 C 13.707031 21.242188 13.890625 21.425781 14.117188 21.425781 C 14.34375 21.425781 14.527344 21.242188 14.527344 21.011719 L 14.527344 3.480469 C 14.527344 3.253906 14.34375 3.070312 14.117188 3.070312 Z M 14.117188 3.070312 "/>
<path style=" stroke:none;fill-rule:nonzero;fill:rgb(100%,100%,100%);fill-opacity:1;" d="M 14.117188 22.355469 C 13.890625 22.355469 13.707031 22.539062 13.707031 22.765625 L 13.707031 24.519531 C 13.707031 24.746094 13.890625 24.929688 14.117188 24.929688 C 14.34375 24.929688 14.527344 24.746094 14.527344 24.519531 L 14.527344 22.765625 C 14.527344 22.539062 14.34375 22.355469 14.117188 22.355469 Z M 14.117188 22.355469 "/>
</g>
</svg>
