<?xml version="1.0" encoding="UTF-8"?>
<svg xmlns="http://www.w3.org/2000/svg" xmlns:xlink="http://www.w3.org/1999/xlink" width="28pt" height="28pt" viewBox="0 0 28 28" version="1.1">
<g id="surface1">
<path style=" stroke:none;fill-rule:nonzero;fill:rgb(100%,100%,100%);fill-opacity:1;" d="M 6.066406 9.332031 L 21.933594 9.332031 C 22.191406 9.332031 22.398438 9.125 22.398438 8.867188 L 22.398438 4.199219 C 22.398438 1.648438 20.933594 0 18.667969 0 L 9.800781 0 C 7.40625 0 5.601562 1.804688 5.601562 4.199219 L 5.601562 8.867188 C 5.601562 9.125 5.808594 9.332031 6.066406 9.332031 Z M 6.535156 4.199219 C 6.535156 2.308594 7.90625 0.933594 9.800781 0.933594 L 18.667969 0.933594 C 20.730469 0.933594 21.464844 2.621094 21.464844 4.199219 L 21.464844 8.398438 L 6.535156 8.398438 Z M 6.535156 4.199219 "/>
<path style=" stroke:none;fill-rule:nonzero;fill:rgb(100%,100%,100%);fill-opacity:1;" d="M 20.066406 4.667969 L 16.332031 4.667969 C 16.316406 4.667969 16.304688 4.675781 16.285156 4.675781 C 16.074219 3.609375 15.128906 2.800781 14 2.800781 C 12.871094 2.800781 11.925781 3.609375 11.710938 4.675781 C 11.695312 4.675781 11.683594 4.667969 11.667969 4.667969 L 7.933594 4.667969 C 7.675781 4.667969 7.464844 4.875 7.464844 5.132812 C 7.464844 5.390625 7.675781 5.601562 7.933594 5.601562 L 11.667969 5.601562 C 11.683594 5.601562 11.695312 5.59375 11.710938 5.589844 C 11.925781 6.660156 12.871094 7.464844 14 7.464844 C 15.128906 7.464844 16.074219 6.660156 16.285156 5.589844 C 16.304688 5.59375 16.316406 5.601562 16.332031 5.601562 L 20.066406 5.601562 C 20.324219 5.601562 20.53125 5.390625 20.53125 5.132812 C 20.53125 4.875 20.324219 4.667969 20.066406 4.667969 Z M 14 6.535156 C 13.226562 6.535156 12.601562 5.90625 12.601562 5.132812 C 12.601562 4.363281 13.226562 3.734375 14 3.734375 C 14.773438 3.734375 15.398438 4.363281 15.398438 5.132812 C 15.398438 5.90625 14.773438 6.535156 14 6.535156 Z M 14 6.535156 "/>
<path style=" stroke:none;fill-rule:nonzero;fill:rgb(100%,100%,100%);fill-opacity:1;" d="M 6.617188 13.945312 C 6.855469 14.964844 7.652344 18.148438 8.476562 19.390625 C 9.078125 20.292969 10.484375 22.398438 14 22.398438 C 17.515625 22.398438 18.921875 20.292969 19.519531 19.390625 C 20.347656 18.148438 21.144531 14.964844 21.382812 13.945312 C 21.96875 13.777344 22.398438 13.238281 22.398438 12.601562 L 22.398438 10.734375 C 22.398438 10.476562 22.191406 10.265625 21.933594 10.265625 C 21.675781 10.265625 21.464844 10.476562 21.464844 10.734375 L 21.464844 12.601562 C 21.464844 12.855469 21.257812 13.066406 21 13.066406 C 20.78125 13.066406 20.589844 13.21875 20.542969 13.433594 C 20.539062 13.453125 20.28125 14.601562 19.914062 15.871094 C 19.902344 15.871094 19.894531 15.867188 19.882812 15.867188 C 19.847656 15.867188 16.398438 15.855469 14.171875 14.964844 C 14.0625 14.921875 13.9375 14.921875 13.828125 14.964844 C 11.605469 15.855469 8.15625 15.867188 8.121094 15.867188 C 8.109375 15.867188 8.101562 15.871094 8.089844 15.875 C 7.71875 14.601562 7.460938 13.453125 7.457031 13.433594 C 7.410156 13.21875 7.21875 13.066406 7 13.066406 C 6.742188 13.066406 6.535156 12.855469 6.535156 12.601562 L 6.535156 10.734375 C 6.535156 10.476562 6.324219 10.265625 6.066406 10.265625 C 5.808594 10.265625 5.601562 10.476562 5.601562 10.734375 L 5.601562 12.601562 C 5.601562 13.238281 6.03125 13.777344 6.617188 13.945312 Z M 14 15.898438 C 16.039062 16.660156 18.785156 16.777344 19.628906 16.796875 C 19.355469 17.632812 19.046875 18.421875 18.746094 18.875 C 18.183594 19.714844 17.015625 21.464844 14 21.464844 C 10.984375 21.464844 9.816406 19.714844 9.253906 18.875 C 8.953125 18.421875 8.644531 17.632812 8.371094 16.796875 C 9.207031 16.777344 11.957031 16.664062 14 15.898438 Z M 14 15.898438 "/>
<path style=" stroke:none;fill-rule:nonzero;fill:rgb(100%,100%,100%);fill-opacity:1;" d="M 27.976562 27.386719 L 27.507812 25.984375 C 26.9375 24.273438 25.449219 23.34375 19.242188 23.332031 C 18.863281 23.140625 17.476562 22.449219 17.476562 22.449219 C 17.308594 22.367188 17.105469 22.390625 16.960938 22.511719 L 14 25.050781 L 11.039062 22.511719 C 10.894531 22.390625 10.691406 22.363281 10.523438 22.449219 L 8.757812 23.332031 C 8.332031 23.332031 7.929688 23.339844 7.546875 23.347656 C 7.519531 23.34375 7.496094 23.332031 7.46875 23.332031 C 7.429688 23.332031 7.398438 23.347656 7.363281 23.355469 C 2.324219 23.5 1.015625 24.410156 0.492188 25.984375 L 0.0234375 27.386719 C -0.0585938 27.628906 0.0742188 27.894531 0.320312 27.976562 C 0.566406 28.058594 0.828125 27.925781 0.910156 27.679688 L 1.375 26.28125 C 1.632812 25.515625 1.972656 24.496094 7 24.300781 L 7 24.332031 C 6.199219 24.542969 5.601562 25.265625 5.601562 26.132812 C 5.601562 27.164062 6.4375 28 7.46875 28 C 8.496094 28 9.332031 27.164062 9.332031 26.132812 C 9.332031 25.265625 8.734375 24.542969 7.933594 24.332031 L 7.933594 24.277344 C 8.230469 24.269531 8.535156 24.265625 8.863281 24.265625 L 8.867188 24.265625 C 8.9375 24.265625 9.011719 24.25 9.074219 24.21875 L 10.664062 23.421875 L 13.535156 25.882812 L 13.535156 27.53125 C 13.535156 27.789062 13.742188 28 14 28 C 14.257812 28 14.464844 27.789062 14.464844 27.53125 L 14.464844 25.878906 L 17.335938 23.421875 C 18.5 24.003906 18.921875 24.210938 19.132812 24.253906 L 19.132812 24.265625 C 25.953125 24.265625 26.339844 25.429688 26.625 26.28125 L 27.089844 27.679688 C 27.15625 27.875 27.335938 28 27.53125 28 C 27.582031 28 27.632812 27.992188 27.679688 27.976562 C 27.925781 27.894531 28.058594 27.628906 27.976562 27.386719 Z M 8.398438 26.132812 C 8.398438 26.648438 7.980469 27.066406 7.46875 27.066406 C 6.953125 27.066406 6.535156 26.648438 6.535156 26.132812 C 6.535156 25.617188 6.953125 25.199219 7.46875 25.199219 C 7.980469 25.199219 8.398438 25.617188 8.398438 26.132812 Z M 8.398438 26.132812 "/>
<path style=" stroke:none;fill-rule:nonzero;fill:rgb(100%,100%,100%);fill-opacity:1;" d="M 15.398438 12.132812 C 15.140625 12.132812 14.933594 12.34375 14.933594 12.601562 C 14.933594 12.855469 15.140625 13.066406 15.398438 13.066406 L 15.867188 13.066406 C 15.867188 13.324219 16.074219 13.53125 16.332031 13.53125 C 16.589844 13.53125 16.800781 13.324219 16.800781 13.066406 L 17.265625 13.066406 C 17.523438 13.066406 17.734375 12.855469 17.734375 12.601562 C 17.734375 12.34375 17.523438 12.132812 17.265625 12.132812 Z M 15.398438 12.132812 "/>
<path style=" stroke:none;fill-rule:nonzero;fill:rgb(100%,100%,100%);fill-opacity:1;" d="M 10.734375 12.132812 C 10.476562 12.132812 10.265625 12.34375 10.265625 12.601562 C 10.265625 12.855469 10.476562 13.066406 10.734375 13.066406 L 11.199219 13.066406 C 11.199219 13.324219 11.410156 13.53125 11.667969 13.53125 C 11.925781 13.53125 12.132812 13.324219 12.132812 13.066406 L 12.601562 13.066406 C 12.859375 13.066406 13.066406 12.855469 13.066406 12.601562 C 13.066406 12.34375 12.859375 12.132812 12.601562 12.132812 Z M 10.734375 12.132812 "/>
</g>
</svg>
