<?xml version="1.0" encoding="UTF-8"?>
<svg xmlns="http://www.w3.org/2000/svg" xmlns:xlink="http://www.w3.org/1999/xlink" width="28pt" height="28pt" viewBox="0 0 28 28" version="1.1">
<g id="surface1">
<path style=" stroke:none;fill-rule:nonzero;fill:rgb(100%,100%,100%);fill-opacity:1;" d="M 20.066406 9.332031 L 19.132812 9.332031 C 18.875 9.332031 18.667969 9.542969 18.667969 9.800781 C 18.667969 10.058594 18.875 10.265625 19.132812 10.265625 L 20.066406 10.265625 C 20.324219 10.265625 20.535156 10.058594 20.535156 9.800781 C 20.535156 9.542969 20.324219 9.332031 20.066406 9.332031 Z M 20.066406 9.332031 "/>
<path style=" stroke:none;fill-rule:nonzero;fill:rgb(100%,100%,100%);fill-opacity:1;" d="M 20.066406 11.199219 L 19.132812 11.199219 C 18.875 11.199219 18.667969 11.410156 18.667969 11.667969 C 18.667969 11.925781 18.875 12.132812 19.132812 12.132812 L 20.066406 12.132812 C 20.324219 12.132812 20.535156 11.925781 20.535156 11.667969 C 20.535156 11.410156 20.324219 11.199219 20.066406 11.199219 Z M 20.066406 11.199219 "/>
<path style=" stroke:none;fill-rule:nonzero;fill:rgb(100%,100%,100%);fill-opacity:1;" d="M 20.066406 7.464844 L 19.132812 7.464844 C 18.875 7.464844 18.667969 7.675781 18.667969 7.933594 C 18.667969 8.191406 18.875 8.398438 19.132812 8.398438 L 20.066406 8.398438 C 20.324219 8.398438 20.535156 8.191406 20.535156 7.933594 C 20.535156 7.675781 20.324219 7.464844 20.066406 7.464844 Z M 20.066406 7.464844 "/>
<path style=" stroke:none;fill-rule:nonzero;fill:rgb(100%,100%,100%);fill-opacity:1;" d="M 20.066406 22.398438 L 19.132812 22.398438 C 18.875 22.398438 18.667969 22.609375 18.667969 22.867188 C 18.667969 23.125 18.875 23.332031 19.132812 23.332031 L 20.066406 23.332031 C 20.324219 23.332031 20.535156 23.125 20.535156 22.867188 C 20.535156 22.609375 20.324219 22.398438 20.066406 22.398438 Z M 20.066406 22.398438 "/>
<path style=" stroke:none;fill-rule:nonzero;fill:rgb(100%,100%,100%);fill-opacity:1;" d="M 9.800781 7.464844 L 7 7.464844 C 6.742188 7.464844 6.535156 7.675781 6.535156 7.933594 L 6.535156 14.464844 C 6.535156 14.722656 6.742188 14.933594 7 14.933594 L 9.800781 14.933594 C 10.058594 14.933594 10.265625 14.722656 10.265625 14.464844 L 10.265625 7.933594 C 10.265625 7.675781 10.058594 7.464844 9.800781 7.464844 Z M 9.332031 14 L 7.464844 14 L 7.464844 8.398438 L 9.332031 8.398438 Z M 9.332031 14 "/>
<path style=" stroke:none;fill-rule:nonzero;fill:rgb(100%,100%,100%);fill-opacity:1;" d="M 9.800781 22.398438 L 7 22.398438 C 6.742188 22.398438 6.535156 22.609375 6.535156 22.867188 C 6.535156 23.125 6.742188 23.332031 7 23.332031 L 9.800781 23.332031 C 10.058594 23.332031 10.265625 23.125 10.265625 22.867188 C 10.265625 22.609375 10.058594 22.398438 9.800781 22.398438 Z M 9.800781 22.398438 "/>
<path style=" stroke:none;fill-rule:nonzero;fill:rgb(100%,100%,100%);fill-opacity:1;" d="M 9.800781 24.265625 L 7 24.265625 C 6.742188 24.265625 6.535156 24.476562 6.535156 24.734375 C 6.535156 24.992188 6.742188 25.199219 7 25.199219 L 9.800781 25.199219 C 10.058594 25.199219 10.265625 24.992188 10.265625 24.734375 C 10.265625 24.476562 10.058594 24.265625 9.800781 24.265625 Z M 9.800781 24.265625 "/>
<path style=" stroke:none;fill-rule:nonzero;fill:rgb(100%,100%,100%);fill-opacity:1;" d="M 20.066406 24.265625 L 19.132812 24.265625 C 18.875 24.265625 18.667969 24.476562 18.667969 24.734375 C 18.667969 24.992188 18.875 25.199219 19.132812 25.199219 L 20.066406 25.199219 C 20.324219 25.199219 20.535156 24.992188 20.535156 24.734375 C 20.535156 24.476562 20.324219 24.265625 20.066406 24.265625 Z M 20.066406 24.265625 "/>
<path style=" stroke:none;fill-rule:nonzero;fill:rgb(100%,100%,100%);fill-opacity:1;" d="M 25.667969 24.265625 L 23.800781 24.265625 C 23.542969 24.265625 23.332031 24.476562 23.332031 24.734375 C 23.332031 24.992188 23.542969 25.199219 23.800781 25.199219 L 25.667969 25.199219 C 25.925781 25.199219 26.132812 24.992188 26.132812 24.734375 C 26.132812 24.476562 25.925781 24.265625 25.667969 24.265625 Z M 25.667969 24.265625 "/>
<path style=" stroke:none;fill-rule:nonzero;fill:rgb(100%,100%,100%);fill-opacity:1;" d="M 15.867188 7.933594 C 15.867188 7.675781 15.65625 7.464844 15.398438 7.464844 L 13.535156 7.464844 C 13.277344 7.464844 13.066406 7.675781 13.066406 7.933594 L 13.066406 14.464844 C 13.066406 14.722656 13.277344 14.933594 13.535156 14.933594 L 15.398438 14.933594 C 15.65625 14.933594 15.867188 14.722656 15.867188 14.464844 Z M 14.933594 14 L 14 14 L 14 8.398438 L 14.933594 8.398438 Z M 14.933594 14 "/>
<path style=" stroke:none;fill-rule:nonzero;fill:rgb(100%,100%,100%);fill-opacity:1;" d="M 25.667969 22.398438 L 23.800781 22.398438 C 23.542969 22.398438 23.332031 22.609375 23.332031 22.867188 C 23.332031 23.125 23.542969 23.332031 23.800781 23.332031 L 25.667969 23.332031 C 25.925781 23.332031 26.132812 23.125 26.132812 22.867188 C 26.132812 22.609375 25.925781 22.398438 25.667969 22.398438 Z M 25.667969 22.398438 "/>
<path style=" stroke:none;fill-rule:nonzero;fill:rgb(100%,100%,100%);fill-opacity:1;" d="M 15.398438 24.265625 L 13.535156 24.265625 C 13.277344 24.265625 13.066406 24.476562 13.066406 24.734375 C 13.066406 24.992188 13.277344 25.199219 13.535156 25.199219 L 15.398438 25.199219 C 15.65625 25.199219 15.867188 24.992188 15.867188 24.734375 C 15.867188 24.476562 15.65625 24.265625 15.398438 24.265625 Z M 15.398438 24.265625 "/>
<path style=" stroke:none;fill-rule:nonzero;fill:rgb(100%,100%,100%);fill-opacity:1;" d="M 23.800781 16.800781 C 24.058594 16.800781 24.265625 16.589844 24.265625 16.332031 L 24.265625 11.667969 C 24.265625 11.410156 24.058594 11.199219 23.800781 11.199219 C 23.542969 11.199219 23.332031 11.410156 23.332031 11.667969 L 23.332031 16.332031 C 23.332031 16.589844 23.542969 16.800781 23.800781 16.800781 Z M 23.800781 16.800781 "/>
<path style=" stroke:none;fill-rule:nonzero;fill:rgb(100%,100%,100%);fill-opacity:1;" d="M 26.132812 11.667969 C 26.132812 11.410156 25.925781 11.199219 25.667969 11.199219 C 25.410156 11.199219 25.199219 11.410156 25.199219 11.667969 L 25.199219 16.332031 C 25.199219 16.589844 25.410156 16.800781 25.667969 16.800781 C 25.925781 16.800781 26.132812 16.589844 26.132812 16.332031 Z M 26.132812 11.667969 "/>
<path style=" stroke:none;fill-rule:nonzero;fill:rgb(100%,100%,100%);fill-opacity:1;" d="M 26.601562 3.734375 L 23.800781 3.734375 C 23.542969 3.734375 23.332031 3.941406 23.332031 4.199219 C 23.332031 4.457031 23.542969 4.667969 23.800781 4.667969 L 26.601562 4.667969 C 26.855469 4.667969 27.066406 4.875 27.066406 5.132812 L 27.066406 26.601562 C 27.066406 26.855469 26.855469 27.066406 26.601562 27.066406 L 22.398438 27.066406 L 22.398438 7.464844 L 25.199219 7.464844 C 25.457031 7.464844 25.667969 7.257812 25.667969 7 C 25.667969 6.742188 25.457031 6.535156 25.199219 6.535156 L 22.398438 6.535156 L 22.398438 2.332031 C 22.398438 1.546875 21.785156 0.933594 21 0.933594 L 18.199219 0.933594 C 17.429688 0.933594 16.800781 1.5625 16.800781 2.332031 L 16.800781 27.066406 L 12.132812 27.066406 L 12.132812 2.800781 L 15.398438 2.800781 C 15.65625 2.800781 15.867188 2.589844 15.867188 2.332031 C 15.867188 2.074219 15.65625 1.867188 15.398438 1.867188 L 12.132812 1.867188 L 12.132812 1.398438 C 12.132812 0.613281 11.519531 0 10.734375 0 L 6.066406 0 C 5.292969 0 4.667969 0.628906 4.667969 1.398438 L 4.667969 5.601562 L 2.332031 5.601562 C 2.074219 5.601562 1.867188 5.808594 1.867188 6.066406 C 1.867188 6.324219 2.074219 6.535156 2.332031 6.535156 L 4.667969 6.535156 L 4.667969 27.066406 L 1.398438 27.066406 C 1.144531 27.066406 0.933594 26.855469 0.933594 26.601562 L 0.933594 4.199219 C 0.933594 3.941406 1.144531 3.734375 1.398438 3.734375 L 3.265625 3.734375 C 3.523438 3.734375 3.734375 3.523438 3.734375 3.265625 C 3.734375 3.007812 3.523438 2.800781 3.265625 2.800781 L 1.398438 2.800781 C 0.628906 2.800781 0 3.429688 0 4.199219 L 0 26.601562 C 0 27.371094 0.628906 28 1.398438 28 L 26.601562 28 C 27.371094 28 28 27.371094 28 26.601562 L 28 5.132812 C 28 4.363281 27.371094 3.734375 26.601562 3.734375 Z M 11.199219 27.066406 L 5.601562 27.066406 L 5.601562 3.734375 L 9.800781 3.734375 C 10.058594 3.734375 10.265625 3.523438 10.265625 3.265625 C 10.265625 3.007812 10.058594 2.800781 9.800781 2.800781 L 5.601562 2.800781 L 5.601562 1.398438 C 5.601562 1.136719 5.804688 0.933594 6.066406 0.933594 L 10.734375 0.933594 C 11 0.933594 11.199219 1.132812 11.199219 1.398438 Z M 21.464844 27.066406 L 17.734375 27.066406 L 17.734375 4.667969 L 20.066406 4.667969 C 20.324219 4.667969 20.535156 4.457031 20.535156 4.199219 C 20.535156 3.941406 20.324219 3.734375 20.066406 3.734375 L 17.734375 3.734375 L 17.734375 2.332031 C 17.734375 2.070312 17.9375 1.867188 18.199219 1.867188 L 21 1.867188 C 21.265625 1.867188 21.464844 2.066406 21.464844 2.332031 Z M 21.464844 27.066406 "/>
<path style=" stroke:none;fill-rule:nonzero;fill:rgb(100%,100%,100%);fill-opacity:1;" d="M 3.265625 22.398438 L 2.332031 22.398438 C 2.074219 22.398438 1.867188 22.609375 1.867188 22.867188 C 1.867188 23.125 2.074219 23.332031 2.332031 23.332031 L 3.265625 23.332031 C 3.523438 23.332031 3.734375 23.125 3.734375 22.867188 C 3.734375 22.609375 3.523438 22.398438 3.265625 22.398438 Z M 3.265625 22.398438 "/>
<path style=" stroke:none;fill-rule:nonzero;fill:rgb(100%,100%,100%);fill-opacity:1;" d="M 3.265625 24.265625 L 2.332031 24.265625 C 2.074219 24.265625 1.867188 24.476562 1.867188 24.734375 C 1.867188 24.992188 2.074219 25.199219 2.332031 25.199219 L 3.265625 25.199219 C 3.523438 25.199219 3.734375 24.992188 3.734375 24.734375 C 3.734375 24.476562 3.523438 24.265625 3.265625 24.265625 Z M 3.265625 24.265625 "/>
<path style=" stroke:none;fill-rule:nonzero;fill:rgb(100%,100%,100%);fill-opacity:1;" d="M 15.398438 22.398438 L 13.535156 22.398438 C 13.277344 22.398438 13.066406 22.609375 13.066406 22.867188 C 13.066406 23.125 13.277344 23.332031 13.535156 23.332031 L 15.398438 23.332031 C 15.65625 23.332031 15.867188 23.125 15.867188 22.867188 C 15.867188 22.609375 15.65625 22.398438 15.398438 22.398438 Z M 15.398438 22.398438 "/>
<path style=" stroke:none;fill-rule:nonzero;fill:rgb(100%,100%,100%);fill-opacity:1;" d="M 3.265625 11.199219 L 2.332031 11.199219 C 2.074219 11.199219 1.867188 11.410156 1.867188 11.667969 C 1.867188 11.925781 2.074219 12.132812 2.332031 12.132812 L 3.265625 12.132812 C 3.523438 12.132812 3.734375 11.925781 3.734375 11.667969 C 3.734375 11.410156 3.523438 11.199219 3.265625 11.199219 Z M 3.265625 11.199219 "/>
<path style=" stroke:none;fill-rule:nonzero;fill:rgb(100%,100%,100%);fill-opacity:1;" d="M 3.265625 13.066406 L 2.332031 13.066406 C 2.074219 13.066406 1.867188 13.277344 1.867188 13.535156 C 1.867188 13.789062 2.074219 14 2.332031 14 L 3.265625 14 C 3.523438 14 3.734375 13.789062 3.734375 13.535156 C 3.734375 13.277344 3.523438 13.066406 3.265625 13.066406 Z M 3.265625 13.066406 "/>
</g>
</svg>
