<?xml version="1.0" encoding="UTF-8"?>
<svg xmlns="http://www.w3.org/2000/svg" xmlns:xlink="http://www.w3.org/1999/xlink" width="28pt" height="28pt" viewBox="0 0 28 28" version="1.1">
<g id="surface1">
<path style=" stroke:none;fill-rule:nonzero;fill:rgb(100%,100%,100%);fill-opacity:1;" d="M 14 11.664062 C 14.773438 11.664062 15.398438 11.035156 15.398438 10.265625 C 15.398438 9.492188 14.773438 8.863281 14 8.863281 C 13.226562 8.863281 12.601562 9.492188 12.601562 10.265625 C 12.601562 11.035156 13.226562 11.664062 14 11.664062 Z M 14 9.796875 C 14.257812 9.796875 14.464844 10.007812 14.464844 10.265625 C 14.464844 10.519531 14.257812 10.730469 14 10.730469 C 13.742188 10.730469 13.535156 10.519531 13.535156 10.265625 C 13.535156 10.007812 13.742188 9.796875 14 9.796875 Z M 14 9.796875 "/>
<path style=" stroke:none;fill-rule:nonzero;fill:rgb(100%,100%,100%);fill-opacity:1;" d="M 14.464844 12.597656 C 14.464844 12.855469 14.257812 13.0625 14 13.0625 C 13.742188 13.0625 13.535156 12.855469 13.535156 12.597656 C 13.535156 12.339844 13.742188 12.128906 14 12.128906 C 14.257812 12.128906 14.464844 12.339844 14.464844 12.597656 Z M 14.464844 12.597656 "/>
<path style=" stroke:none;fill-rule:nonzero;fill:rgb(100%,100%,100%);fill-opacity:1;" d="M 14.464844 7.464844 C 14.464844 7.722656 14.257812 7.929688 14 7.929688 C 13.742188 7.929688 13.535156 7.722656 13.535156 7.464844 C 13.535156 7.207031 13.742188 7 14 7 C 14.257812 7 14.464844 7.207031 14.464844 7.464844 Z M 14.464844 7.464844 "/>
<path style=" stroke:none;fill-rule:nonzero;fill:rgb(100%,100%,100%);fill-opacity:1;" d="M 12.601562 12.597656 C 12.601562 12.855469 12.390625 13.0625 12.132812 13.0625 C 11.875 13.0625 11.667969 12.855469 11.667969 12.597656 C 11.667969 12.339844 11.875 12.128906 12.132812 12.128906 C 12.390625 12.128906 12.601562 12.339844 12.601562 12.597656 Z M 12.601562 12.597656 "/>
<path style=" stroke:none;fill-rule:nonzero;fill:rgb(100%,100%,100%);fill-opacity:1;" d="M 13.535156 13.53125 C 13.535156 13.789062 13.324219 13.996094 13.066406 13.996094 C 12.808594 13.996094 12.601562 13.789062 12.601562 13.53125 C 12.601562 13.273438 12.808594 13.0625 13.066406 13.0625 C 13.324219 13.0625 13.535156 13.273438 13.535156 13.53125 Z M 13.535156 13.53125 "/>
<path style=" stroke:none;fill-rule:nonzero;fill:rgb(100%,100%,100%);fill-opacity:1;" d="M 16.332031 12.597656 C 16.332031 12.855469 16.125 13.0625 15.867188 13.0625 C 15.609375 13.0625 15.398438 12.855469 15.398438 12.597656 C 15.398438 12.339844 15.609375 12.128906 15.867188 12.128906 C 16.125 12.128906 16.332031 12.339844 16.332031 12.597656 Z M 16.332031 12.597656 "/>
<path style=" stroke:none;fill-rule:nonzero;fill:rgb(100%,100%,100%);fill-opacity:1;" d="M 15.398438 13.53125 C 15.398438 13.789062 15.191406 13.996094 14.933594 13.996094 C 14.675781 13.996094 14.464844 13.789062 14.464844 13.53125 C 14.464844 13.273438 14.675781 13.0625 14.933594 13.0625 C 15.191406 13.0625 15.398438 13.273438 15.398438 13.53125 Z M 15.398438 13.53125 "/>
<path style=" stroke:none;fill-rule:nonzero;fill:rgb(100%,100%,100%);fill-opacity:1;" d="M 27.996094 13.996094 C 27.996094 11.441406 27.304688 9.046875 26.105469 6.984375 L 26.105469 6.96875 L 26.042969 6.867188 C 26.023438 6.832031 26 6.800781 25.980469 6.765625 C 25.910156 6.652344 25.835938 6.542969 25.765625 6.429688 C 25.644531 6.242188 25.515625 6.054688 25.386719 5.871094 C 25.3125 5.765625 25.234375 5.664062 25.160156 5.558594 C 25.125 5.515625 25.09375 5.46875 25.0625 5.425781 L 25.007812 5.359375 C 24.839844 5.144531 24.664062 4.933594 24.460938 4.703125 C 24.175781 4.378906 23.867188 4.074219 23.550781 3.777344 C 23.488281 3.722656 23.429688 3.664062 23.371094 3.609375 C 23.328125 3.570312 23.285156 3.527344 23.242188 3.488281 L 23.152344 3.414062 C 23.09375 3.359375 23.023438 3.308594 22.964844 3.257812 C 22.910156 3.214844 22.855469 3.167969 22.800781 3.125 C 22.71875 3.058594 22.640625 2.988281 22.550781 2.917969 L 22.488281 2.871094 C 22.453125 2.84375 22.410156 2.816406 22.371094 2.789062 C 22.355469 2.777344 22.339844 2.765625 22.324219 2.753906 C 22.054688 2.554688 21.777344 2.363281 21.492188 2.183594 C 21.394531 2.121094 21.300781 2.058594 21.199219 2 C 21.164062 1.976562 21.128906 1.953125 21.089844 1.929688 L 20.945312 1.847656 C 20.746094 1.730469 20.542969 1.621094 20.308594 1.503906 L 20.191406 1.445312 C 20.164062 1.429688 20.132812 1.417969 20.101562 1.402344 C 19.917969 1.3125 19.730469 1.226562 19.542969 1.144531 C 19.46875 1.117188 19.398438 1.085938 19.328125 1.054688 C 19.128906 0.972656 18.925781 0.894531 18.726562 0.824219 C 18.703125 0.816406 18.679688 0.804688 18.65625 0.796875 L 18.449219 0.726562 C 18.417969 0.714844 18.378906 0.707031 18.347656 0.695312 C 18.210938 0.652344 18.074219 0.609375 17.9375 0.566406 C 17.902344 0.558594 17.871094 0.546875 17.835938 0.539062 L 17.625 0.476562 C 17.605469 0.472656 17.582031 0.464844 17.558594 0.460938 C 17.507812 0.445312 17.453125 0.433594 17.402344 0.421875 C 17.226562 0.375 17.046875 0.335938 16.859375 0.292969 C 16.839844 0.292969 16.824219 0.285156 16.804688 0.28125 C 16.796875 0.28125 16.792969 0.28125 16.789062 0.277344 C 16.761719 0.273438 16.738281 0.269531 16.710938 0.265625 C 16.476562 0.21875 16.238281 0.179688 16 0.144531 C 15.992188 0.144531 15.988281 0.144531 15.984375 0.144531 C 15.902344 0.132812 15.820312 0.121094 15.734375 0.113281 C 15.730469 0.113281 15.726562 0.109375 15.722656 0.109375 C 15.523438 0.0859375 15.324219 0.0664062 15.125 0.0507812 C 15.121094 0.0507812 15.117188 0.0507812 15.109375 0.0507812 L 14.859375 0.03125 C 14.859375 0.03125 14.855469 0.03125 14.851562 0.03125 C 14.570312 0.0117188 14.285156 0 14 0 C 13.714844 0 13.429688 0.0117188 13.148438 0.0273438 C 13.144531 0.0273438 13.140625 0.0273438 13.140625 0.0273438 L 12.890625 0.046875 C 12.886719 0.046875 12.882812 0.046875 12.878906 0.046875 C 12.679688 0.0625 12.480469 0.0859375 12.285156 0.109375 C 12.277344 0.109375 12.269531 0.109375 12.261719 0.109375 L 12.015625 0.140625 C 12.003906 0.144531 11.992188 0.144531 11.980469 0.148438 C 11.902344 0.160156 11.820312 0.171875 11.742188 0.183594 C 11.5625 0.214844 11.382812 0.242188 11.191406 0.28125 C 11.167969 0.285156 11.148438 0.292969 11.125 0.296875 C 10.886719 0.347656 10.652344 0.40625 10.417969 0.464844 C 10.402344 0.46875 10.390625 0.472656 10.375 0.476562 L 10.164062 0.535156 C 10.136719 0.542969 10.113281 0.554688 10.085938 0.5625 C 9.9375 0.605469 9.792969 0.648438 9.652344 0.695312 C 9.617188 0.707031 9.582031 0.714844 9.550781 0.726562 L 9.34375 0.796875 C 9.324219 0.804688 9.300781 0.8125 9.277344 0.820312 C 9.070312 0.898438 8.863281 0.976562 8.660156 1.0625 C 8.59375 1.089844 8.527344 1.117188 8.460938 1.144531 C 8.273438 1.226562 8.085938 1.3125 7.902344 1.402344 C 7.871094 1.414062 7.839844 1.429688 7.808594 1.445312 L 7.664062 1.515625 C 7.605469 1.546875 7.539062 1.585938 7.476562 1.617188 C 7.390625 1.664062 7.300781 1.710938 7.214844 1.761719 C 7.152344 1.792969 7.097656 1.824219 7.035156 1.859375 L 6.910156 1.929688 C 6.875 1.949219 6.839844 1.976562 6.804688 1.996094 C 6.699219 2.0625 6.59375 2.128906 6.488281 2.195312 C 6.214844 2.371094 5.945312 2.554688 5.683594 2.746094 C 5.667969 2.761719 5.648438 2.773438 5.628906 2.789062 C 5.589844 2.816406 5.546875 2.84375 5.507812 2.871094 L 5.4375 2.929688 C 5.359375 2.988281 5.289062 3.054688 5.210938 3.113281 C 5.148438 3.164062 5.085938 3.214844 5.027344 3.265625 C 4.96875 3.316406 4.90625 3.363281 4.851562 3.410156 L 4.761719 3.488281 C 4.71875 3.523438 4.679688 3.566406 4.636719 3.605469 C 4.5625 3.671875 4.492188 3.738281 4.417969 3.808594 C 4.214844 4 4.015625 4.199219 3.820312 4.40625 C 3.753906 4.476562 3.6875 4.542969 3.625 4.613281 C 3.589844 4.652344 3.554688 4.6875 3.519531 4.722656 C 3.335938 4.929688 3.160156 5.144531 2.980469 5.375 L 2.941406 5.421875 C 2.910156 5.464844 2.878906 5.511719 2.84375 5.554688 C 2.761719 5.664062 2.683594 5.773438 2.605469 5.886719 C 2.492188 6.042969 2.382812 6.203125 2.277344 6.363281 C 2.1875 6.5 2.101562 6.636719 2.015625 6.773438 C 1.996094 6.808594 1.972656 6.835938 1.953125 6.871094 L 1.894531 6.972656 L 1.894531 6.984375 C 0.695312 9.046875 0.00390625 11.441406 0.00390625 13.996094 C 0.00390625 18.136719 1.8125 21.859375 4.675781 24.425781 L 4.675781 24.433594 L 4.839844 24.574219 C 4.914062 24.636719 4.992188 24.699219 5.070312 24.761719 C 5.089844 24.78125 5.113281 24.800781 5.132812 24.816406 C 5.28125 24.9375 5.429688 25.054688 5.582031 25.171875 C 5.613281 25.191406 5.640625 25.214844 5.667969 25.234375 C 5.820312 25.347656 5.972656 25.453125 6.125 25.558594 C 6.15625 25.578125 6.183594 25.601562 6.214844 25.621094 C 6.371094 25.726562 6.527344 25.828125 6.6875 25.925781 C 6.71875 25.941406 6.75 25.960938 6.777344 25.980469 C 6.820312 26.007812 6.867188 26.035156 6.910156 26.0625 C 6.988281 26.109375 7.070312 26.148438 7.148438 26.195312 C 7.25 26.25 7.351562 26.308594 7.453125 26.363281 C 7.574219 26.425781 7.691406 26.484375 7.8125 26.542969 C 7.910156 26.59375 8.011719 26.640625 8.113281 26.691406 C 8.238281 26.746094 8.363281 26.804688 8.492188 26.859375 C 8.585938 26.902344 8.683594 26.941406 8.78125 26.980469 C 8.914062 27.03125 9.046875 27.085938 9.179688 27.136719 C 9.277344 27.171875 9.378906 27.203125 9.476562 27.238281 C 9.6875 27.308594 9.902344 27.378906 10.117188 27.441406 C 10.265625 27.484375 10.417969 27.527344 10.570312 27.566406 C 10.652344 27.585938 10.734375 27.605469 10.820312 27.625 C 10.992188 27.664062 11.167969 27.703125 11.347656 27.738281 C 11.410156 27.75 11.472656 27.761719 11.539062 27.773438 C 11.746094 27.808594 11.953125 27.839844 12.160156 27.867188 C 12.199219 27.875 12.238281 27.878906 12.28125 27.882812 C 12.519531 27.914062 12.765625 27.9375 13.011719 27.953125 C 13.019531 27.953125 13.027344 27.957031 13.035156 27.957031 L 13.101562 27.960938 C 13.171875 27.964844 13.246094 27.972656 13.320312 27.976562 L 13.664062 28 L 13.660156 27.984375 C 13.773438 27.988281 13.886719 27.992188 14 27.992188 C 14.109375 27.992188 14.21875 27.988281 14.324219 27.984375 L 14.320312 28 L 14.683594 27.976562 C 14.757812 27.972656 14.828125 27.964844 14.898438 27.960938 L 14.964844 27.957031 C 14.972656 27.957031 14.984375 27.953125 14.992188 27.953125 C 15.238281 27.9375 15.480469 27.910156 15.722656 27.882812 C 15.761719 27.878906 15.800781 27.871094 15.839844 27.867188 C 16.050781 27.839844 16.257812 27.808594 16.464844 27.769531 C 16.527344 27.757812 16.59375 27.75 16.65625 27.734375 C 16.832031 27.703125 17.007812 27.664062 17.183594 27.621094 C 17.265625 27.601562 17.347656 27.585938 17.433594 27.566406 C 17.585938 27.527344 17.734375 27.484375 17.886719 27.4375 C 18.101562 27.375 18.3125 27.308594 18.527344 27.238281 C 18.625 27.203125 18.722656 27.171875 18.820312 27.136719 C 18.957031 27.085938 19.089844 27.03125 19.222656 26.976562 C 19.320312 26.9375 19.414062 26.898438 19.511719 26.859375 C 19.636719 26.804688 19.761719 26.746094 19.886719 26.6875 C 19.988281 26.640625 20.089844 26.59375 20.191406 26.542969 C 20.308594 26.484375 20.429688 26.421875 20.546875 26.359375 C 20.648438 26.304688 20.75 26.25 20.851562 26.191406 C 20.933594 26.148438 21.011719 26.105469 21.09375 26.0625 C 21.136719 26.035156 21.179688 26.007812 21.222656 25.980469 C 21.253906 25.960938 21.285156 25.941406 21.320312 25.917969 C 21.476562 25.824219 21.632812 25.722656 21.785156 25.621094 C 21.816406 25.597656 21.851562 25.574219 21.882812 25.554688 C 22.035156 25.449219 22.183594 25.34375 22.332031 25.234375 C 22.363281 25.210938 22.394531 25.1875 22.425781 25.164062 C 22.574219 25.050781 22.71875 24.9375 22.863281 24.820312 C 22.886719 24.800781 22.914062 24.777344 22.941406 24.753906 C 23.015625 24.691406 23.097656 24.628906 23.171875 24.5625 L 23.332031 24.425781 L 23.332031 24.414062 C 26.191406 21.851562 27.996094 18.132812 27.996094 13.996094 Z M 23.929688 16.042969 C 20.722656 15.316406 17.140625 14.929688 13.535156 14.929688 C 9.492188 14.929688 7.441406 15.382812 4.136719 16.246094 C 3.214844 13.613281 2.71875 10.34375 2.820312 7.25 C 2.894531 7.121094 2.976562 6.996094 3.058594 6.871094 C 3.101562 6.808594 3.136719 6.746094 3.179688 6.683594 C 3.253906 6.578125 3.328125 6.472656 3.40625 6.367188 C 3.464844 6.285156 3.527344 6.199219 3.589844 6.117188 C 3.824219 5.808594 4.066406 5.511719 4.328125 5.226562 C 4.359375 5.191406 4.390625 5.15625 4.425781 5.121094 C 4.628906 4.902344 4.84375 4.6875 5.0625 4.480469 C 5.128906 4.417969 5.195312 4.355469 5.261719 4.296875 C 5.378906 4.1875 5.5 4.085938 5.621094 3.984375 C 5.679688 3.933594 5.742188 3.882812 5.804688 3.832031 C 5.929688 3.730469 6.054688 3.632812 6.183594 3.535156 C 6.207031 3.519531 6.226562 3.503906 6.25 3.488281 C 6.488281 3.3125 6.730469 3.148438 6.980469 2.988281 C 7.082031 2.921875 7.183594 2.859375 7.285156 2.796875 C 7.410156 2.722656 7.535156 2.652344 7.660156 2.578125 C 7.75 2.53125 7.835938 2.484375 7.925781 2.4375 C 8.050781 2.371094 8.175781 2.304688 8.304688 2.242188 C 8.484375 2.15625 8.667969 2.070312 8.855469 1.992188 C 8.90625 1.96875 8.953125 1.949219 9.003906 1.929688 C 9.199219 1.847656 9.398438 1.769531 9.597656 1.699219 C 9.710938 1.65625 9.828125 1.621094 9.941406 1.582031 C 10.074219 1.539062 10.210938 1.496094 10.34375 1.457031 C 10.453125 1.425781 10.5625 1.394531 10.671875 1.367188 C 10.722656 1.351562 10.773438 1.339844 10.824219 1.328125 C 10.992188 1.285156 11.164062 1.242188 11.339844 1.207031 C 11.351562 1.207031 11.367188 1.203125 11.378906 1.199219 C 11.414062 1.191406 11.445312 1.1875 11.480469 1.179688 C 11.695312 1.140625 11.910156 1.101562 12.125 1.070312 C 12.214844 1.058594 12.304688 1.046875 12.390625 1.039062 C 12.582031 1.015625 12.769531 0.996094 12.960938 0.980469 L 13.039062 0.972656 C 13.09375 0.96875 13.148438 0.964844 13.203125 0.960938 C 13.730469 0.929688 14.269531 0.929688 14.796875 0.960938 C 14.867188 0.964844 14.933594 0.972656 15 0.976562 L 15.039062 0.980469 C 15.234375 0.996094 15.425781 1.015625 15.628906 1.039062 C 15.636719 1.039062 15.640625 1.042969 15.648438 1.042969 C 15.71875 1.050781 15.789062 1.058594 15.859375 1.070312 C 16.066406 1.097656 16.273438 1.132812 16.492188 1.175781 C 16.582031 1.195312 16.675781 1.210938 16.769531 1.230469 C 16.957031 1.273438 17.148438 1.316406 17.335938 1.367188 C 17.46875 1.402344 17.59375 1.441406 17.722656 1.476562 C 17.816406 1.503906 17.910156 1.535156 18.011719 1.566406 C 18.144531 1.609375 18.277344 1.65625 18.410156 1.703125 C 18.597656 1.769531 18.777344 1.839844 18.960938 1.914062 C 19.035156 1.945312 19.109375 1.976562 19.183594 2.007812 C 19.355469 2.082031 19.523438 2.160156 19.691406 2.242188 C 20.042969 2.414062 20.386719 2.597656 20.71875 2.800781 C 20.816406 2.859375 20.90625 2.917969 21 2.976562 C 21.230469 3.125 21.457031 3.277344 21.675781 3.4375 C 21.722656 3.472656 21.773438 3.503906 21.820312 3.542969 C 21.949219 3.636719 22.074219 3.738281 22.195312 3.835938 C 22.257812 3.886719 22.320312 3.9375 22.378906 3.984375 C 22.5 4.085938 22.617188 4.1875 22.734375 4.292969 C 22.8125 4.363281 22.886719 4.433594 22.960938 4.503906 C 23.136719 4.671875 23.308594 4.847656 23.480469 5.023438 C 23.546875 5.097656 23.617188 5.167969 23.683594 5.242188 C 23.785156 5.355469 23.882812 5.46875 23.980469 5.585938 C 24.035156 5.648438 24.085938 5.710938 24.136719 5.773438 C 24.230469 5.886719 24.324219 6.003906 24.414062 6.121094 C 24.472656 6.203125 24.53125 6.28125 24.589844 6.363281 C 24.667969 6.472656 24.746094 6.578125 24.820312 6.6875 C 24.859375 6.746094 24.894531 6.804688 24.933594 6.863281 C 25.015625 6.992188 25.101562 7.121094 25.179688 7.25 C 25.277344 10.265625 24.808594 13.445312 23.929688 16.042969 Z M 22.335938 24.046875 C 22.113281 24.230469 21.878906 24.40625 21.644531 24.578125 C 21.574219 24.632812 21.5 24.683594 21.429688 24.734375 C 21.1875 24.898438 20.945312 25.058594 20.695312 25.207031 C 20.582031 25.277344 20.464844 25.34375 20.347656 25.40625 C 20.285156 25.441406 20.222656 25.476562 20.160156 25.511719 C 20.035156 25.578125 19.90625 25.644531 19.777344 25.707031 C 19.710938 25.742188 19.648438 25.773438 19.582031 25.804688 C 19.453125 25.867188 19.320312 25.925781 19.183594 25.984375 C 19.121094 26.011719 19.058594 26.039062 18.996094 26.066406 C 18.859375 26.121094 18.722656 26.175781 18.585938 26.226562 C 18.519531 26.25 18.449219 26.277344 18.382812 26.300781 C 18.25 26.347656 18.121094 26.390625 17.988281 26.433594 C 17.902344 26.460938 17.820312 26.488281 17.738281 26.511719 C 17.621094 26.546875 17.503906 26.578125 17.386719 26.613281 C 17.273438 26.640625 17.164062 26.667969 17.054688 26.695312 C 16.960938 26.71875 16.871094 26.738281 16.78125 26.757812 C 16.628906 26.789062 16.480469 26.820312 16.328125 26.847656 C 16.273438 26.855469 16.21875 26.867188 16.164062 26.875 C 15.972656 26.90625 15.78125 26.933594 15.589844 26.957031 C 15.574219 26.960938 15.5625 26.960938 15.550781 26.964844 L 15.859375 25.75 C 15.898438 25.683594 15.941406 25.621094 15.984375 25.554688 C 16.023438 25.496094 16.058594 25.4375 16.097656 25.378906 C 16.164062 25.289062 16.230469 25.199219 16.292969 25.113281 C 16.335938 25.058594 16.375 25.003906 16.414062 24.953125 C 16.488281 24.859375 16.5625 24.769531 16.640625 24.679688 C 16.675781 24.636719 16.714844 24.589844 16.75 24.546875 C 16.851562 24.4375 16.949219 24.328125 17.054688 24.222656 C 17.070312 24.203125 17.089844 24.183594 17.109375 24.164062 C 17.234375 24.039062 17.359375 23.917969 17.492188 23.800781 C 17.523438 23.769531 17.558594 23.746094 17.589844 23.714844 C 17.6875 23.628906 17.789062 23.546875 17.890625 23.464844 C 17.9375 23.421875 17.988281 23.386719 18.039062 23.347656 C 18.128906 23.28125 18.214844 23.214844 18.304688 23.148438 C 18.363281 23.109375 18.421875 23.070312 18.480469 23.03125 C 18.566406 22.972656 18.652344 22.917969 18.738281 22.863281 C 18.800781 22.824219 18.863281 22.785156 18.929688 22.746094 C 19.011719 22.695312 19.097656 22.644531 19.1875 22.597656 C 19.253906 22.5625 19.320312 22.527344 19.386719 22.492188 C 19.472656 22.445312 19.5625 22.402344 19.648438 22.359375 C 19.71875 22.328125 19.789062 22.296875 19.859375 22.261719 C 19.949219 22.222656 20.035156 22.183594 20.125 22.148438 C 20.199219 22.121094 20.269531 22.089844 20.34375 22.0625 C 20.433594 22.027344 20.523438 21.996094 20.617188 21.964844 C 20.691406 21.941406 20.761719 21.914062 20.835938 21.890625 C 20.929688 21.863281 21.023438 21.835938 21.121094 21.808594 C 21.195312 21.789062 21.265625 21.765625 21.34375 21.746094 C 21.4375 21.722656 21.535156 21.703125 21.632812 21.679688 C 21.707031 21.664062 21.78125 21.648438 21.855469 21.632812 C 21.957031 21.613281 22.0625 21.597656 22.164062 21.582031 C 22.238281 21.570312 22.308594 21.558594 22.378906 21.546875 C 22.386719 21.546875 22.390625 21.546875 22.398438 21.546875 L 22.398438 23.988281 C 22.378906 24.007812 22.359375 24.027344 22.335938 24.046875 Z M 12.445312 26.964844 C 12.242188 26.941406 12.042969 26.910156 11.84375 26.878906 C 11.792969 26.871094 11.742188 26.859375 11.691406 26.851562 C 11.535156 26.824219 11.378906 26.792969 11.226562 26.757812 C 11.136719 26.738281 11.046875 26.71875 10.957031 26.699219 C 10.84375 26.671875 10.730469 26.644531 10.617188 26.613281 C 10.5 26.582031 10.386719 26.546875 10.269531 26.511719 C 10.183594 26.488281 10.101562 26.460938 10.015625 26.433594 C 9.882812 26.394531 9.753906 26.347656 9.625 26.300781 C 9.554688 26.277344 9.484375 26.253906 9.414062 26.226562 C 9.277344 26.175781 9.144531 26.121094 9.011719 26.066406 C 8.945312 26.039062 8.878906 26.011719 8.8125 25.984375 C 8.683594 25.925781 8.550781 25.867188 8.421875 25.804688 C 8.355469 25.773438 8.289062 25.738281 8.21875 25.707031 C 8.09375 25.644531 7.964844 25.578125 7.84375 25.511719 C 7.777344 25.476562 7.714844 25.441406 7.648438 25.40625 C 7.535156 25.339844 7.417969 25.277344 7.304688 25.207031 C 7.058594 25.058594 6.816406 24.902344 6.578125 24.738281 C 6.503906 24.6875 6.429688 24.632812 6.359375 24.582031 C 6.121094 24.410156 5.890625 24.234375 5.667969 24.046875 C 5.648438 24.03125 5.628906 24.015625 5.609375 24 L 5.609375 21.546875 C 5.617188 21.546875 5.625 21.546875 5.632812 21.550781 C 5.707031 21.558594 5.78125 21.574219 5.859375 21.585938 C 5.957031 21.601562 6.058594 21.617188 6.15625 21.632812 C 6.234375 21.648438 6.308594 21.667969 6.386719 21.683594 C 6.484375 21.707031 6.578125 21.726562 6.671875 21.75 C 6.75 21.769531 6.824219 21.792969 6.902344 21.8125 C 6.996094 21.839844 7.089844 21.867188 7.183594 21.894531 C 7.257812 21.917969 7.332031 21.945312 7.40625 21.96875 C 7.496094 22 7.589844 22.035156 7.679688 22.070312 C 7.753906 22.097656 7.824219 22.125 7.898438 22.15625 C 7.988281 22.191406 8.078125 22.230469 8.164062 22.269531 C 8.234375 22.300781 8.304688 22.335938 8.375 22.367188 C 8.464844 22.410156 8.550781 22.457031 8.640625 22.5 C 8.707031 22.535156 8.773438 22.570312 8.839844 22.609375 C 8.929688 22.65625 9.015625 22.707031 9.097656 22.757812 C 9.164062 22.796875 9.226562 22.835938 9.292969 22.875 C 9.378906 22.929688 9.460938 22.984375 9.546875 23.042969 C 9.605469 23.082031 9.667969 23.125 9.726562 23.167969 C 9.8125 23.226562 9.894531 23.292969 9.976562 23.355469 C 10.03125 23.398438 10.089844 23.441406 10.144531 23.484375 C 10.226562 23.550781 10.3125 23.625 10.394531 23.695312 C 10.445312 23.738281 10.496094 23.78125 10.542969 23.824219 C 10.628906 23.902344 10.714844 23.984375 10.800781 24.070312 C 10.839844 24.109375 10.882812 24.148438 10.921875 24.1875 C 11.019531 24.285156 11.113281 24.386719 11.203125 24.488281 C 11.230469 24.519531 11.257812 24.546875 11.28125 24.574219 C 11.515625 24.84375 11.738281 25.125 11.941406 25.421875 C 11.964844 25.457031 11.984375 25.492188 12.007812 25.523438 C 12.078125 25.628906 12.144531 25.734375 12.210938 25.84375 L 12.46875 26.964844 C 12.460938 26.964844 12.453125 26.964844 12.445312 26.964844 Z M 12.90625 25.191406 C 12.875 25.144531 12.839844 25.097656 12.808594 25.046875 C 12.757812 24.96875 12.707031 24.890625 12.652344 24.816406 C 12.59375 24.730469 12.53125 24.648438 12.46875 24.5625 C 12.414062 24.492188 12.359375 24.417969 12.304688 24.347656 C 12.238281 24.261719 12.167969 24.179688 12.097656 24.097656 C 12.042969 24.03125 11.988281 23.96875 11.933594 23.902344 C 11.855469 23.816406 11.777344 23.734375 11.695312 23.652344 C 11.644531 23.59375 11.589844 23.539062 11.535156 23.480469 C 11.445312 23.390625 11.351562 23.304688 11.257812 23.21875 C 11.210938 23.175781 11.164062 23.128906 11.117188 23.085938 C 10.976562 22.960938 10.835938 22.84375 10.691406 22.726562 C 10.6875 22.722656 10.679688 22.71875 10.675781 22.714844 C 10.523438 22.59375 10.371094 22.476562 10.214844 22.367188 C 10.164062 22.332031 10.113281 22.300781 10.0625 22.269531 C 9.957031 22.195312 9.84375 22.121094 9.734375 22.050781 C 9.671875 22.011719 9.605469 21.976562 9.542969 21.9375 C 9.441406 21.878906 9.339844 21.816406 9.234375 21.761719 C 9.167969 21.722656 9.09375 21.6875 9.023438 21.652344 C 8.925781 21.601562 8.824219 21.546875 8.722656 21.5 C 8.648438 21.464844 8.574219 21.433594 8.5 21.398438 C 8.398438 21.355469 8.296875 21.3125 8.195312 21.269531 C 8.117188 21.238281 8.039062 21.207031 7.957031 21.179688 C 7.855469 21.140625 7.753906 21.105469 7.652344 21.070312 C 7.570312 21.042969 7.492188 21.015625 7.410156 20.988281 C 7.304688 20.957031 7.199219 20.925781 7.097656 20.898438 C 7.015625 20.875 6.933594 20.855469 6.851562 20.832031 C 6.742188 20.808594 6.632812 20.78125 6.527344 20.757812 C 6.445312 20.742188 6.363281 20.726562 6.285156 20.710938 C 6.171875 20.6875 6.054688 20.671875 5.941406 20.652344 C 5.863281 20.640625 5.785156 20.628906 5.707031 20.621094 C 5.675781 20.617188 5.640625 20.609375 5.609375 20.605469 L 5.609375 20.058594 C 5.609375 19.914062 5.59375 19.769531 5.570312 19.628906 L 6.332031 20.011719 C 6.402344 20.046875 6.472656 20.0625 6.542969 20.0625 C 6.714844 20.0625 6.878906 19.96875 6.960938 19.804688 C 7.074219 19.574219 6.984375 19.292969 6.753906 19.175781 L 5.722656 18.660156 L 6.753906 18.144531 C 6.984375 18.03125 7.074219 17.75 6.960938 17.519531 C 6.84375 17.289062 6.566406 17.195312 6.335938 17.3125 L 4.878906 18.039062 C 4.863281 18.003906 4.84375 17.96875 4.828125 17.933594 C 4.707031 17.675781 4.585938 17.40625 4.472656 17.125 C 7.644531 16.292969 9.648438 15.863281 13.535156 15.863281 C 17.027344 15.863281 20.5 16.230469 23.609375 16.921875 C 23.546875 17.082031 23.484375 17.238281 23.417969 17.390625 C 23.410156 17.410156 23.402344 17.425781 23.394531 17.445312 C 23.34375 17.566406 23.289062 17.683594 23.234375 17.800781 C 23.195312 17.878906 23.160156 17.957031 23.121094 18.035156 L 21.675781 17.3125 C 21.445312 17.195312 21.164062 17.289062 21.046875 17.519531 C 20.933594 17.75 21.027344 18.03125 21.257812 18.144531 L 22.289062 18.660156 L 21.257812 19.175781 C 21.027344 19.292969 20.933594 19.574219 21.046875 19.804688 C 21.128906 19.96875 21.296875 20.0625 21.464844 20.0625 C 21.535156 20.0625 21.609375 20.046875 21.675781 20.011719 L 22.4375 19.632812 C 22.414062 19.773438 22.398438 19.914062 22.398438 20.0625 L 22.398438 20.605469 C 22.367188 20.609375 22.332031 20.617188 22.300781 20.621094 C 22.222656 20.628906 22.148438 20.640625 22.074219 20.652344 C 21.953125 20.671875 21.835938 20.691406 21.722656 20.710938 C 21.644531 20.726562 21.566406 20.742188 21.492188 20.757812 C 21.378906 20.78125 21.265625 20.808594 21.152344 20.835938 C 21.074219 20.855469 21 20.875 20.921875 20.894531 C 20.8125 20.925781 20.699219 20.957031 20.589844 20.992188 C 20.515625 21.015625 20.4375 21.042969 20.363281 21.066406 C 20.253906 21.101562 20.148438 21.140625 20.039062 21.183594 C 19.96875 21.210938 19.894531 21.238281 19.820312 21.265625 C 19.714844 21.3125 19.609375 21.355469 19.5 21.402344 C 19.429688 21.433594 19.359375 21.464844 19.289062 21.5 C 19.183594 21.550781 19.078125 21.601562 18.972656 21.65625 C 18.90625 21.691406 18.839844 21.722656 18.777344 21.757812 C 18.667969 21.816406 18.5625 21.882812 18.457031 21.945312 C 18.394531 21.980469 18.335938 22.011719 18.277344 22.050781 C 18.160156 22.121094 18.046875 22.199219 17.933594 22.277344 C 17.886719 22.308594 17.84375 22.335938 17.796875 22.367188 C 17.640625 22.476562 17.484375 22.59375 17.332031 22.714844 C 17.332031 22.714844 17.328125 22.71875 17.324219 22.71875 C 17.175781 22.835938 17.035156 22.960938 16.894531 23.085938 C 16.84375 23.128906 16.796875 23.175781 16.75 23.222656 C 16.65625 23.304688 16.5625 23.390625 16.472656 23.480469 C 16.417969 23.539062 16.363281 23.597656 16.308594 23.65625 C 16.230469 23.738281 16.152344 23.820312 16.078125 23.902344 C 16.019531 23.96875 15.964844 24.035156 15.910156 24.101562 C 15.839844 24.183594 15.769531 24.265625 15.703125 24.347656 C 15.648438 24.417969 15.59375 24.492188 15.539062 24.566406 C 15.5 24.617188 15.457031 24.671875 15.417969 24.726562 C 15.394531 24.753906 15.375 24.785156 15.355469 24.816406 C 15.300781 24.894531 15.25 24.972656 15.199219 25.046875 C 15.167969 25.097656 15.132812 25.144531 15.101562 25.195312 L 12.90625 25.195312 Z M 0.9375 13.996094 C 0.9375 12.261719 1.277344 10.609375 1.894531 9.09375 C 2.027344 12.652344 2.851562 16.164062 4.171875 18.714844 C 4.265625 18.898438 4.363281 19.078125 4.460938 19.246094 C 4.601562 19.492188 4.679688 19.773438 4.675781 20.0625 L 4.675781 23.136719 C 2.367188 20.777344 0.9375 17.550781 0.9375 13.996094 Z M 14 27.058594 C 13.8125 27.058594 13.628906 27.054688 13.445312 27.046875 L 13.234375 26.125 L 14.800781 26.125 L 14.566406 27.046875 C 14.378906 27.054688 14.1875 27.058594 14 27.058594 Z M 23.332031 21.464844 L 23.332031 20.035156 C 23.332031 19.753906 23.40625 19.480469 23.546875 19.234375 C 23.605469 19.128906 23.660156 19.023438 23.71875 18.914062 C 23.726562 18.898438 23.742188 18.886719 23.75 18.871094 C 23.753906 18.863281 23.753906 18.851562 23.757812 18.84375 C 25.117188 16.28125 25.96875 12.714844 26.105469 9.09375 C 26.722656 10.609375 27.0625 12.261719 27.0625 13.996094 C 27.0625 17.546875 25.636719 20.769531 23.332031 23.125 Z M 23.332031 21.464844 "/>
</g>
</svg>
